<?xml version="1.0" standalone="no"?>
<!DOCTYPE svg PUBLIC "-//W3C//DTD SVG 20010904//EN"
 "http://www.w3.org/TR/2001/REC-SVG-20010904/DTD/svg10.dtd">
<svg version="1.0" xmlns="http://www.w3.org/2000/svg"
 width="1353.000000pt" height="2334.000000pt" viewBox="0 0 1353.000000 2334.000000"
 preserveAspectRatio="xMidYMid meet">

<g transform="translate(0.000000,2334.000000) scale(0.100000,-0.100000)"
fill="#000000" stroke="none">
<path d="M1610 23326 c-495 -76 -916 -318 -1214 -699 -331 -424 -461 -977
-355 -1502 57 -279 175 -538 357 -780 25 -33 1983 -1998 4351 -4368 l4306
-4307 -4306 -4308 c-2368 -2369 -4324 -4329 -4346 -4357 -119 -147 -237 -365
-299 -551 -162 -483 -126 -980 103 -1434 98 -194 181 -308 343 -470 237 -237
484 -385 795 -475 592 -171 1236 -33 1710 367 50 42 2325 2312 5056 5045 5195
5197 5026 5025 5154 5238 188 312 286 722 256 1075 -33 395 -175 750 -419
1050 -99 122 -10046 10058 -10132 10122 -243 179 -493 286 -805 345 -110 21
-444 26 -555 9z"/>
</g>
</svg>
